{"asset":{"version":"2.0","generator":"THREE.GLTFExporter r186","copyright":"devKitCat — original preview demo, not a purchased product file"},"scenes":[{"nodes":[0]}],"scene":0,"nodes":[{"name":"Sample camping lantern","children":[1,2,3,4,5,6,7,8,9,10,11]},{"matrix":[1,0,0,0,0,1,0,0,0,0,1,0,0,0.08,0,1],"name":"Base","mesh":0},{"matrix":[1,0,0,0,0,1,0,0,0,0,1,0,0,0.18,0,1],"name":"Brass rim","mesh":1},{"matrix":[1,0,0,0,0,1,0,0,0,0,1,0,0,0.56,0,1],"name":"Glass enclosure","mesh":2},{"matrix":[1,0,0,0,0,1,0,0,0,0,1,0,0,0.48,0,1],"name":"Warm light","mesh":3},{"matrix":[1,0,0,0,0,1,0,0,0,0,1,0,-0.235,0.59,-0.235,1],"name":"Frame rail -0.235 -0.235","mesh":4},{"matrix":[1,0,0,0,0,1,0,0,0,0,1,0,-0.235,0.59,0.235,1],"name":"Frame rail -0.235 0.235","mesh":4},{"matrix":[1,0,0,0,0,1,0,0,0,0,1,0,0.235,0.59,-0.235,1],"name":"Frame rail 0.235 -0.235","mesh":4},{"matrix":[1,0,0,0,0,1,0,0,0,0,1,0,0.235,0.59,0.235,1],"name":"Frame rail 0.235 0.235","mesh":4},{"matrix":[1,0,0,0,0,1,0,0,0,0,1,0,0,1,0,1],"name":"Top rim","mesh":5},{"matrix":[1,0,0,0,0,1,0,0,0,0,1,0,0,1.1,0,1],"name":"Cap","mesh":6},{"matrix":[1,0,0,0,0,1,0,0,0,0,1,0,0,1.19,0,1],"name":"Handle","mesh":7}],"bufferViews":[{"buffer":0,"byteOffset":0,"byteLength":1200,"target":34962,"byteStride":12},{"buffer":0,"byteOffset":1200,"byteLength":1200,"target":34962,"byteStride":12},{"buffer":0,"byteOffset":2400,"byteLength":800,"target":34962,"byteStride":8},{"buffer":0,"byteOffset":3200,"byteLength":384,"target":34963},{"buffer":0,"byteOffset":3584,"byteLength":1200,"target":34962,"byteStride":12},{"buffer":0,"byteOffset":4784,"byteLength":1200,"target":34962,"byteStride":12},{"buffer":0,"byteOffset":5984,"byteLength":800,"target":34962,"byteStride":8},{"buffer":0,"byteOffset":6784,"byteLength":384,"target":34963},{"buffer":0,"byteOffset":7168,"byteLength":1200,"target":34962,"byteStride":12},{"buffer":0,"byteOffset":8368,"byteLength":1200,"target":34962,"byteStride":12},{"buffer":0,"byteOffset":9568,"byteLength":800,"target":34962,"byteStride":8},{"buffer":0,"byteOffset":10368,"byteLength":384,"target":34963},{"buffer":0,"byteOffset":10752,"byteLength":912,"target":34962,"byteStride":12},{"buffer":0,"byteOffset":11664,"byteLength":912,"target":34962,"byteStride":12},{"buffer":0,"byteOffset":12576,"byteLength":608,"target":34962,"byteStride":8},{"buffer":0,"byteOffset":13184,"byteLength":288,"target":34963},{"buffer":0,"byteOffset":13472,"byteLength":288,"target":34962,"byteStride":12},{"buffer":0,"byteOffset":13760,"byteLength":288,"target":34962,"byteStride":12},{"buffer":0,"byteOffset":14048,"byteLength":192,"target":34962,"byteStride":8},{"buffer":0,"byteOffset":14240,"byteLength":72,"target":34963},{"buffer":0,"byteOffset":14312,"byteLength":1200,"target":34962,"byteStride":12},{"buffer":0,"byteOffset":15512,"byteLength":1200,"target":34962,"byteStride":12},{"buffer":0,"byteOffset":16712,"byteLength":800,"target":34962,"byteStride":8},{"buffer":0,"byteOffset":17512,"byteLength":384,"target":34963},{"buffer":0,"byteOffset":17896,"byteLength":1200,"target":34962,"byteStride":12},{"buffer":0,"byteOffset":19096,"byteLength":1200,"target":34962,"byteStride":12},{"buffer":0,"byteOffset":20296,"byteLength":800,"target":34962,"byteStride":8},{"buffer":0,"byteOffset":21096,"byteLength":384,"target":34963},{"buffer":0,"byteOffset":21480,"byteLength":1764,"target":34962,"byteStride":12},{"buffer":0,"byteOffset":23244,"byteLength":1764,"target":34962,"byteStride":12},{"buffer":0,"byteOffset":25008,"byteLength":1176,"target":34962,"byteStride":8},{"buffer":0,"byteOffset":26184,"byteLength":1440,"target":34963}],"buffers":[{"byteLength":27624,"uri":"data:application/octet-stream;base64,"}],"accessors":[{"bufferView":0,"componentType":5126,"count":100,"max":[0.4300000071525574,0.07999999821186066,0.4300000071525574],"min":[-0.4300000071525574,-0.07999999821186066,-0.4300000071525574],"type":"VEC3"},{"bufferView":1,"componentType":5126,"count":100,"max":[0.954479992389679,1,0.954479992389679],"min":[-0.954479992389679,-1,-0.954479992389679],"type":"VEC3"},{"bufferView":2,"componentType":5126,"count":100,"max":[1,1],"min":[0,0],"type":"VEC2"},{"bufferView":3,"componentType":5123,"count":192,"max":[99],"min":[0],"type":"SCALAR"},{"bufferView":4,"componentType":5126,"count":100,"max":[0.38999998569488525,0.019999999552965164,0.38999998569488525],"min":[-0.38999998569488525,-0.019999999552965164,-0.38999998569488525],"type":"VEC3"},{"bufferView":5,"componentType":5126,"count":100,"max":[1,1,1],"min":[-1,-1,-1],"type":"VEC3"},{"bufferView":6,"componentType":5126,"count":100,"max":[1,1],"min":[0,0],"type":"VEC2"},{"bufferView":7,"componentType":5123,"count":192,"max":[99],"min":[0],"type":"SCALAR"},{"bufferView":8,"componentType":5126,"count":100,"max":[0.3199999928474426,0.36500000953674316,0.3199999928474426],"min":[-0.3199999928474426,-0.36500000953674316,-0.3199999928474426],"type":"VEC3"},{"bufferView":9,"componentType":5126,"count":100,"max":[1,1,1],"min":[-1,-1,-1],"type":"VEC3"},{"bufferView":10,"componentType":5126,"count":100,"max":[1,1],"min":[0,0],"type":"VEC2"},{"bufferView":11,"componentType":5123,"count":192,"max":[99],"min":[0],"type":"SCALAR"},{"bufferView":12,"componentType":5126,"count":76,"max":[0.1599999964237213,0.22499999403953552,0.1599999964237213],"min":[-0.1599999964237213,-0.22499999403953552,-0.1599999964237213],"type":"VEC3"},{"bufferView":13,"componentType":5126,"count":76,"max":[0.9960726499557495,1,0.9960726499557495],"min":[-0.9960726499557495,-1,-0.9960726499557495],"type":"VEC3"},{"bufferView":14,"componentType":5126,"count":76,"max":[1,1],"min":[0,0],"type":"VEC2"},{"bufferView":15,"componentType":5123,"count":144,"max":[75],"min":[0],"type":"SCALAR"},{"bufferView":16,"componentType":5126,"count":24,"max":[0.02500000037252903,0.4000000059604645,0.02500000037252903],"min":[-0.02500000037252903,-0.4000000059604645,-0.02500000037252903],"type":"VEC3"},{"bufferView":17,"componentType":5126,"count":24,"max":[1,1,1],"min":[-1,-1,-1],"type":"VEC3"},{"bufferView":18,"componentType":5126,"count":24,"max":[1,1],"min":[0,0],"type":"VEC2"},{"bufferView":19,"componentType":5123,"count":36,"max":[23],"min":[0],"type":"SCALAR"},{"bufferView":20,"componentType":5126,"count":100,"max":[0.38999998569488525,0.02500000037252903,0.38999998569488525],"min":[-0.38999998569488525,-0.02500000037252903,-0.38999998569488525],"type":"VEC3"},{"bufferView":21,"componentType":5126,"count":100,"max":[1,1,1],"min":[-1,-1,-1],"type":"VEC3"},{"bufferView":22,"componentType":5126,"count":100,"max":[1,1],"min":[0,0],"type":"VEC2"},{"bufferView":23,"componentType":5123,"count":192,"max":[99],"min":[0],"type":"SCALAR"},{"bufferView":24,"componentType":5126,"count":100,"max":[0.4000000059604645,0.09000000357627869,0.4000000059604645],"min":[-0.4000000059604645,-0.09000000357627869,-0.4000000059604645],"type":"VEC3"},{"bufferView":25,"componentType":5126,"count":100,"max":[0.7270131707191467,1,0.7270131707191467],"min":[-0.7270131707191467,-1,-0.7270131707191467],"type":"VEC3"},{"bufferView":26,"componentType":5126,"count":100,"max":[1,1],"min":[0,0],"type":"VEC2"},{"bufferView":27,"componentType":5123,"count":192,"max":[99],"min":[0],"type":"SCALAR"},{"bufferView":28,"componentType":5126,"count":147,"max":[0.27799999713897705,0.27799999713897705,0.02424871176481247],"min":[-0.27799999713897705,0,-0.02424871176481247],"type":"VEC3"},{"bufferView":29,"componentType":5126,"count":147,"max":[1,1,0.8660253882408142],"min":[-1,-1,-0.8660253882408142],"type":"VEC3"},{"bufferView":30,"componentType":5126,"count":147,"max":[1,1],"min":[0,0],"type":"VEC2"},{"bufferView":31,"componentType":5123,"count":720,"max":[146],"min":[0],"type":"SCALAR"}],"materials":[{"pbrMetallicRoughness":{"baseColorFactor":[0.07036009568874305,0.13843161502267545,0.10461648408208657,1],"metallicFactor":0.55,"roughnessFactor":0.38}},{"pbrMetallicRoughness":{"baseColorFactor":[0.46778379610254284,0.3005437944049895,0.09305896283800832,1],"metallicFactor":0.7,"roughnessFactor":0.3}},{"pbrMetallicRoughness":{"baseColorFactor":[1,0.783537791521566,0.46207699964472876,0.18],"metallicFactor":0,"roughnessFactor":0.2},"alphaMode":"BLEND"},{"pbrMetallicRoughness":{"baseColorFactor":[1,0.6375968739867731,0.20863687013464577,1],"metallicFactor":0,"roughnessFactor":0.5},"emissiveFactor":[1,0.3371636150376657,0.031896033067374104],"extensions":{"KHR_materials_emissive_strength":{"emissiveStrength":1.2}}}],"meshes":[{"primitives":[{"mode":4,"attributes":{"POSITION":0,"NORMAL":1,"TEXCOORD_0":2},"indices":3,"material":0}]},{"primitives":[{"mode":4,"attributes":{"POSITION":4,"NORMAL":5,"TEXCOORD_0":6},"indices":7,"material":1}]},{"primitives":[{"mode":4,"attributes":{"POSITION":8,"NORMAL":9,"TEXCOORD_0":10},"indices":11,"material":2}]},{"primitives":[{"mode":4,"attributes":{"POSITION":12,"NORMAL":13,"TEXCOORD_0":14},"indices":15,"material":3}]},{"primitives":[{"mode":4,"attributes":{"POSITION":16,"NORMAL":17,"TEXCOORD_0":18},"indices":19,"material":0}]},{"primitives":[{"mode":4,"attributes":{"POSITION":20,"NORMAL":21,"TEXCOORD_0":22},"indices":23,"material":1}]},{"primitives":[{"mode":4,"attributes":{"POSITION":24,"NORMAL":25,"TEXCOORD_0":26},"indices":27,"material":0}]},{"primitives":[{"mode":4,"attributes":{"POSITION":28,"NORMAL":29,"TEXCOORD_0":30},"indices":31,"material":1}]}],"extensionsUsed":["KHR_materials_emissive_strength"]}